<?xml version="1.0" encoding="UTF-8"?>
<svg version="1.1" viewBox="0 0 2048 1157" width="128" height="80" xmlns="http://www.w3.org/2000/svg">
<path transform="translate(1397,407)" d="m0 0 2 1 8 27 6 15 8 14 8 11 12 12 17 12 19 10 14 5 9 2h5l3 4-2 6-1-2-13 4-15 5-21 14-10 9-13 13-10 15-8 17-4 13-4 15-2 5h6l4-1-4 4-6 4h-2l2-4-1-1h-2l-2-11-9-22-8-14-10-13-9-10-11-10-14-9-16-8-21-7-22-4-5-2 4-2 18-1 16-4 16-9 14-10 13-11 9-9 9-12 9-16 8-17 4-16z" fill="#FEFEFE"/>
<path transform="translate(773,479)" d="m0 0h17l9 3 7 6 7 11 6 14 5 15 3 15 1 8v33l-3 19-6 15-7 13-7 9-8 7-10 4-10 1-9-2-2-1 1-4-4-1v-2l12-2 10-5 10-9 7-11 5-13 5-25 1-11v-29l-2-17-4-16-5-10-5-3-8-1-11 3-18 5-3 3 2 8 2 40 1 160 1 20 1 8-3 3h-14l-5-4 2-10v-228l-1-15 18-2zm-20 17 1 3z" fill="#FEFEFE"/>
<path transform="translate(888,479)" d="m0 0h18l9 3 7 8 5 12 1 10 1 119 1 14-2 3-12 1-3-3-1-8v-20l-8 12-9 12-9 7-5 2-10 1-12-3-8-9-6-13-4-20v-27l3-23 4-12 5-7 13-9h7l16 8 7 1 11-2h4v-41l-3-9-4-1-17 8-11 6-6 2h-11l-7-4-7-8v-5h23l14-4zm18 2m-42 55-2 1-4 11-1 12v31l2 22 4 15 5 10 4 3 6 1 8-3 9-9 9-12 4-11 3-18 1-14v-32l-1-4-5 2-8 9-5 2-9-2-11-8-8-6z" fill="#FEFEFE"/>
<path transform="translate(1073,415)" d="m0 0 16 1 18 4 8 2h15l5 1-3 5-10 10-5 2h-11l-12-4-17-10-8-2-2 4-2 16v54l1 8 4-9 6-8 7-6 8-4 7-2h13l10 4 7 8 3 7v8l-4 9-6 9-9 10-13 11-18 12-8 5-5 6-3 9v5 3 34l2 21 1 9-4 1h-17l-1-1v-11l1-9 1-131 1-49 3-12 6-11 8-6zm26 67-11 4-8 6-8 9-6 12-2 16v29l2 3 11-11 12-9 14-12 8-9 4-9v-11l-5-12-6-6z" fill="#FEFEFE"/>
<path transform="translate(662,478)" d="m0 0h21l16 2 24 1v4l-10 9-9 5-11-1-10-4-12-7-3-1h-10l-3 1-2 7v15l5 10 8 9 11 9 10 9 8 7 10 9 11 14 8 16 2 7v19l-4 10-8 11-8 7-11 6-4 1h-16l-12-4-11-8-8-11-4-9-1-4v-14l4-10 7-8 12-7 3-1h7l-1 5-7 10-5 12-1 3v13l5 13 7 8 6 4 7 2 9-1 6-4 6-7 4-10 1-4v-16l-4-12-7-11-11-12-8-7-23-23-9-14-4-11v-15l4-10 6-8z" fill="#FEFEFE"/>
<path transform="translate(1172,477)" d="m0 0 16 1 17 2 23 1 2 1-1 5-10 7-9 5-9-1-16-8-13-7-4 2-8 10-3 7 1 6 8 11 15 15 8 7 16 15 7 7 13 17 8 16 1 10-2 14-7 14-10 11-8 5-5 2-7 1h-11l-13-4-8-5-8-8-4-8-3-12v-12l4-11 6-8 6-5 8-3h4v2h5l-12 16-3 8v18l3 8 4 6 6 7 8 4 10 1 8-4 7-8 3-7 1-5v-20l-5-13-8-10-9-10-7-7-8-7-15-16-9-14-4-12v-15l5-10 7-8 5-3z" fill="#FEFEFE"/>
<path transform="translate(1440,373)" d="m0 0h26l15 2 18 6 12 8 9 8 9 12 10 19 4 12 2 12v22l-2 18-6 24-11 29-8 16-8 14-12 16-11 12-9 10-6 5-5 5-12 11-14 11-18 11-16 8-15 5-15 3-26 2h-20l-14-2-16-6-13-9-8-8-10-13-9-15-5-13-3-19 2-31 4-20 5-14 11-25 9-17 11-16 10-14 9-10 20-20 11-9 17-13 16-10 15-8 13-4 23-4zm1 5-23 3-17 4-15 6-18 11-23 16-12 11-8 7-7 8-9 10-13 19-8 13-13 25-10 25-5 20-3 24v12l2 14 5 15 12 19 14 15 11 7 11 5 14 3h35l18-2 16-4 9-4 24-13 16-11 22-18 21-21 13-17 12-20 10-21 7-21 7-27 2-14v-26l-3-14-6-15-9-15-11-12-11-8-9-4-16-4-8-1z" fill="#FEFEFE"/>
<path transform="translate(988,479)" d="m0 0h32l11 1 3 1v6l-6 7-5 1h-13l-7-1h-13l-12 5-6 2-2 18-1 45v57l1 25-2 2h-16l-4-1 1-10 1-22v-107l-1-28h9l7 3 4 4 1 4-1 7h4l-2-1 1-4 7-5 7-8z" fill="#FEFEFE"/>
<path transform="translate(1119,557)" d="m0 0 5 3 1 3v17l-1 13v22l4 13 9 16v3l-3 1h-10l-7-3-5-6-5-12-1-7v-13l6-22 2-7 2-16z" fill="#FEFEFE"/>
<path transform="translate(1504,528)" d="m0 0h1l-1 9-3 13-8 16-7 11-8 11-12 13-11 9-15 11-17 10-2-1 6-7 18-13 14-11 12-12 13-18 9-16 7-14z" fill="#FEFEFE"/>
<path transform="translate(1412,411)" d="m0 0 8 2 19 7 16 8 12 9 13 13 7 10 10 19 6 19 1 8-3-3-9-21-9-17-12-16-11-10-15-10-19-10-14-7z" fill="#FEFEFE"/>
<path transform="translate(1387,411)" d="m0 0 2 1-11 8-18 12-14 11-13 13-8 10-10 16-8 16-7 13-1-4 5-15 11-21 11-16 19-19 17-12 20-11z" fill="#FEFEFE"/>
<path transform="translate(1300,542)" d="m0 0 5 3 5 8 8 17 10 15 11 12 11 9 15 9 13 8 13 7-3 1-21-8-16-9-11-8-8-7-7-8-6-9-9-16-10-22z" fill="#FEFEFE"/>
<path transform="translate(1396,289)" d="m0 0 5 1v84h-3l-1-6-1-30z" fill="#FEFEFE"/>
<path transform="translate(1558,518)" d="m0 0h43l46 3 2 1v3h-11l-77-4z" fill="#FEFEFE"/>
<path transform="translate(1112,553)" d="m0 0 4 1-2 4-13 8-18 13-3 2-9-1-5-2 2-3 9-2 11-6 17-11z" fill="#FEFEFE"/>
<path transform="translate(1406,678)" d="m0 0h2l1 23v40l-1 2h-2l-2-9v-53z" fill="#FEFEFE"/>
<path transform="translate(1049,674)" d="m0 0 7 1 5 2-6 12v10l2 2v3l-7-1-3-3v-12l1-11z" fill="#FEFEFE"/>
<path transform="translate(1232,674)" d="m0 0 8 2-2 8v15l2 4h-7l-3-3v-25z" fill="#FEFEFE"/>
<path transform="translate(1246,675)" d="m0 0h6l6 5 5 11 1 4v7l-7 1-3-3-2-18-2-5z" fill="#FEFEFE"/>
<path transform="translate(1207,683)" d="m0 0 4 2 1 4v13l-2 7-7 1-3-2 3-12z" fill="#FEFEFE"/>
<path transform="translate(892,679)" d="m0 0 1 2-2 5v9l2 4h6l4-5 4-10h1l1 13-5 5-2 1h-11l-4-5-1-8 3-9z" fill="#FEFEFE"/>
<path transform="translate(980,685)" d="m0 0h7l1 1v14l-3 3-7-1-1-1v-9z" fill="#FEFEFE"/>
<path transform="translate(1026,678)" d="m0 0 4 2v18l-4 5h-9v-2l3-2 3-9 1-10z" fill="#FEFEFE"/>
<path transform="translate(1280,683)" d="m0 0 5 1 2 9h2l1 5-3 3h-7l-3-3 1-12z" fill="#FEFEFE"/>
<path transform="translate(1092,683)" d="m0 0 4 1 3 7-1 9-2 3h-6l-1-1v-15l1-3z" fill="#FEFEFE"/>
<path transform="translate(814,676)" d="m0 0 6 1 1 5-7 9v5l-4-1-1-1v-8l3-9z" fill="#FEFEFE"/>
<path transform="translate(950,684)" d="m0 0 7 1 2 6v7l-5 5-4-1z" fill="#FEFEFE"/>
<path transform="translate(869,683)" d="m0 0h5v12l-3 7h-5v-10z" fill="#FEFEFE"/>
<path transform="translate(1109,683)" d="m0 0h5l2 5 1 9 3 3 3-1 1 6-5 1-3-3-6-12z" fill="#FEFEFE"/>
<path transform="translate(837,681)" d="m0 0 5 1 1 4v10l-3 5-5-1z" fill="#FEFEFE"/>
<path transform="translate(1143,679)" d="m0 0h6l-2 9v15l-5-1-2-7z" fill="#FEFEFE"/>
<path transform="translate(1128,682)" d="m0 0 5 1v7l-4 11-3 3v-18z" fill="#FEFEFE"/>
<path transform="translate(1070,683)" d="m0 0 8 6v3l-11 9-1-2 3-15z" fill="#FEFEFE"/>
<path transform="translate(1161,681)" d="m0 0 4 2 1 13-3 4-5 1 2-18z" fill="#FEFEFE"/>
<path transform="translate(1e3 684)" d="m0 0 5 1 2 2v10l-2 2-5-1-1-1z" fill="#FEFEFE"/>
<path transform="translate(1177,681)" d="m0 0 4 2 3 3 1 10h-4l-4 6-1-4 2-12z" fill="#FEFEFE"/>
<path transform="translate(920,683)" d="m0 0 4 2 1 8-4 9-3 1-1-5 3-12z" fill="#FEFEFE"/>
<path transform="translate(1232,530)" d="m0 0h7l8 4-1 3h-8l-6-2-1-4z" fill="#FEFEFE"/>
<path transform="translate(935,687)" d="m0 0 5 1v7l-3 4-4-1-1-1v-6z" fill="#FEFEFE"/>
<path transform="translate(856,685)" d="m0 0h2v7l1 3-3 3-4-4 3-8z" fill="#FEFEFE"/>
<path transform="translate(1192,687)" d="m0 0h2v8l-5 5 1-10z" fill="#FEFEFE"/>
<path transform="translate(861,698)" d="m0 0 4 4-5-1z" fill="#FEFEFE"/>
<path transform="translate(821,692)" d="m0 0 3 1-3 1z" fill="#FEFEFE"/>
<path transform="translate(1083,691)" d="m0 0" fill="#FEFEFE"/>
<path transform="translate(824,687)" d="m0 0" fill="#FEFEFE"/>
<path transform="translate(825,686)" d="m0 0" fill="#FEFEFE"/>
<path transform="translate(1176,680)" d="m0 0" fill="#FEFEFE"/>
<path transform="translate(1416,632)" d="m0 0" fill="#FEFEFE"/>
<path transform="translate(1392,631)" d="m0 0" fill="#FEFEFE"/>
<path transform="translate(1389,410)" d="m0 0" fill="#FEFEFE"/>
</svg>
