<?xml version="1.0" encoding="UTF-8"?>
<svg version="1.1" viewBox="0 0 2048 1676" width="1280" height="1280" xmlns="http://www.w3.org/2000/svg">
<path transform="translate(937,144)" d="m0 0h18l15 3 12 5 11 7 11 9 7 7 9 14 6 13 4 15 4 27v16l16 1 16 4 13 7 12 11 10 14 8 16 11 23 4 4 7-1 17-10 14-8 15-8 17-4h21l11 3 12 6 12 9 7 7 7 10 8 16 9 33 335 1 11 3 8 4 12 11 7 10 3 8 2 18 1 144 1 2v58l-1 4-1 729-2 19-4 11-8 10-10 9-8 4-11 3-11 1h-426l-14-2-10-4-8-6-6-5-7-10-5-12-2-9-1-19-1-553-2-6v-59l3-5v-6l-3-5v-48l1-14 1-3 1-46v-73l-51 17-15 4-7-1-7-7-18-22-13-18-9-13-12-19-16-32-10-26-3-8-4 1-6 7-8 10-10 11-5 1h-8v191l-1 739-3 14-8 15-6 7-10 7-10 4-8 2-21 1h-417l-13-2-14-7-10-9-9-14-3-12-1-186-1-391-2-3-1-41v-17l3-6v-9l-3-7v-55l3-5 1-160 1-79 2-11 4-8 9-12 12-9 9-4 15-2h337l-4-6-9-9-2-1v-2l-3-1-7-8-8-8-10-13-10-15-8-16-5-15-2-12v-17l3-18 6-16 9-14 10-11 10-7 13-6 9-2 11-1h14l12 3 16 8 11 6 10 6 13 7 5 1 2-5 8-15 7-15 7-13 8-11 11-11 14-8 10-3z" fill="#50A3B7"/>
<path transform="translate(1606,444)" d="m0 0 5 1h9l9 2 6 4 6 8 2 6 1 24-1 502h2l-1 3v80l1 4h-2v282l-2 7-6 7-8 4-3 1-201 1h-197v2l-2-1v-1l-66-1-11-7-4-7-1-6-1-219-4-5 4 2v-229l1-325-1-8 1-25 19-10 24-15 17-12 11-9 13-12 15-15 12-16 8-13 2-3h341z" fill="#50A3B7"/>
<path transform="translate(937,144)" d="m0 0h18l15 3 12 5 11 7 11 9 7 7 9 14 6 13 4 15 4 27v16l16 1 16 4 13 7 12 11 10 14 8 16 11 23 4 4 7-1 17-10 14-8 15-8 17-4h21l11 3 12 6 12 9 7 7 7 10 8 16 9 33 335 1 11 3 8 4 12 11 7 10 3 8 2 18 1 144 1 2v58l-1 4-1 729-2 19-4 11-8 10-10 9-8 4-11 3-11 1h-426l-14-2-10-4-8-6-6-5-7-10-5-12-2-9-1-19-1-553-2-6v-59l3-5v-6l-3-5v-48l1-14 1-3 1-46v-73l-51 17-15 4-7-1-7-7-18-22-13-18-9-13-12-19-16-32-10-26-3-8-4 1-6 7-8 10-10 11-5 1h-8v191l-1 739-3 14-8 15-6 7-10 7-10 4-8 2-21 1h-417l-13-2-14-7-10-9-9-14-3-12-1-186-1-391-2-3-1-41v-17l3-6v-9l-3-7v-55l3-5 1-160 1-79 2-11 4-8 9-12 12-9 9-4 4-1h64l-2 4-19 19-5 6-8 7-14 13h-3l-4-5-8-7-19-19-2-1 6 7 2 1v2h2v2l4 2 18 18v3l-20 1-8 3-7 8-2 4-1 28v499l-1 2 1 3v182l1 186 3 6 7 7 6 3 272 1 5 1 5-1h41l16 1 4-1 125-1 10-6 4-7 1-8v-210l2-3-2-1 1-237v-3l-1-321v-106l-1-16-1-4-10-3-19-7h-411l-15-2 14-14 8-7 12-12 7-8 9-9 281-1-4-6-9-9-2-1v-2l-3-1-7-8-8-8-10-13-10-15-8-16-5-15-2-12v-17l3-18 6-16 9-14 10-11 10-7 13-6 9-2 11-1h14l12 3 16 8 11 6 10 6 13 7 5 1 2-5 8-15 7-15 7-13 8-11 11-11 14-8 10-3zm669 300-3 1h-340l-10 16-10 13-9 10-16 16-11 9-13 10-17 11-13 8-12 7-10 5-1 28 1 8-1 324v227l-4-2 4 5 1 219 2 9 5 5 9 6 66 1v2h2v-2h197l201-1 9-4 6-5 3-5 1-5v-282h2l-1-4v-80l1-3h-2l1-510-1-16-3-8-7-8-7-3-6-1h-10z" fill="#D5383A"/>
<path transform="translate(868,869)" d="m0 0h2l32 32 5 2 1 3h-2v235l-1 2 3 1-2 3v210l-2 10-4 6-10 6-125 1-5 1-15-1h-41l-7 1-3-1-272-1-8-5-7-7-2-5-1-189v-92l2 2 33-33 8-7 4-2 11 9 90 90v3l-11 1-8 5-5-1-7-4-9-1-10 5-4 6-1 10 3 9 7 10 10 10 12 7 6-1 11-8 7-7 7-11 3-8v-10l-7-12-9-10-5-6-8-7-53-53-7-8-13-12-8-7v-3l21-21 7-8 8-8 7-8 4-2 7 6h6v6l16 13 22 14 23 11 18 6 29 7 24 3h21l25-3 32-8 19-7 16-8 15-9 14-10 11-10 1-4 7-4 4-2 2-4 6-7 11-15 11-17 11-21 7-19 5-19 4-19z" fill="#50A3B7"/>
<path transform="translate(1370,629)" d="m0 0h44l26 4 19 5 25 10 19 10 20 14 13 11 19 19 11 14 14 22 12 26 9 29 3 15 2 20v31l-3 25-6 22-6 17-12 25-10 16-10 13-9 11-17 17-11 9-15 10-13 8-15 7-22 8-32 8-16 2h-33l-21-3-28-7-23-8-19-10-17-11-12-9-27-27-14-19-9-15-8-14-9-23-5-17-5-29-1-10v-25l3-23 6-28 11-28 10-18 7-11 10-14 11-12 5-6 8-7 9-8 15-11 11-7 16-9 26-10 23-6z" fill="#FECBA0"/>
<path transform="translate(640,629)" d="m0 0h34l21 3 16 4 24 8 20 9 20 11 8 7 6 3 26 26 9 10 13 18 9 16 8 16 7 18 5 22 3 23v46l-2 6-6 26-6 18-7 16-8 15-10 15-12 16-8 10-8 6h-3l-1 5-12 11-21 14-16 9-20 8-21 6-23 5-19 2h-21l-24-3-36-9-20-8-21-11-10-7-11-8-11-9 1-6-6 1-10-8-14-19-8-13-12-22-9-20-5-15-4-19-2-16v-48l3-22 10-30 7-16 12-22 12-17 11-12 11-11h2l2-4 8-7 13-10 14-9 16-8 16-7 14-5 11-3 24-4z" fill="#3FB8F2"/>
<path transform="translate(1279,393)" d="m0 0 337 1 11 3 8 4 12 11 7 10 3 8 2 18 1 144 1 2v58l-1 4-1 729-2 19-4 11-8 10-10 9-8 4-11 3-11 1h-426l-14-2-10-4-8-6-6-5-7-10-5-12-2-9-1-19-1-553-2-6v-59l3-5v-6l-3-5v-48l1-14 1-3 1-46 1-73 15-6v27l1 8-1 324v228l-3-1 3 3 1 219 2 9 5 5 8 5 66 1 2 3v-2l5-1h192l201-1 9-4 5-4 3-5 1-5 1-282h2l-2-4v-80l2-3h-2v-510l-1-16-3-8-6-7-7-3-6-1h-10l-4-1-3 1h-313l-26-1 10-25 4-14z" fill="#1B1C1D"/>
<path transform="translate(1370,629)" d="m0 0h44l26 4 19 5 25 10 19 10 20 14 13 11 19 19 11 14 14 22 12 26 9 29 3 15 2 20v31l-3 25-6 22-6 17-12 25-10 16-10 13-9 11-12 12h-3l-2-13-4-13-6-9-9-10-12-9-13-7-1-2-1-180-3-12-8-19-12-17-14-13-13-8-13-6-11-3-7-1h-25l-15 1v2l-8 2-17 10-4 3h-2v2l-12 9-10 13-10 17-4 14-2 12 1 64v112l-8 5-10 6-10 8-7 7-7 12-5 13-1 11-4-2-17-17-14-19-9-15-8-14-9-23-5-17-5-29-1-10v-25l3-23 6-28 11-28 10-18 7-11 10-14 11-12 5-6 8-7 9-8 15-11 11-7 16-9 26-10 23-6z" fill="#FCFCFC"/>
<path transform="translate(431,394)" d="m0 0h64l-2 4-19 19-5 6-8 7-14 13h-3l-4-5-8-7-19-19-2-1 6 7 2 1v2h2v2l4 2 18 18v3l-20 1-8 3-7 8-2 4-1 28v499l-1 2 1 3v182l1 186 3 6 7 7 6 3 272 1 5 1 5-1h41l16 1 4-1 125-1 10-6 4-7 1-8v-210l2-3-2-1 1-237v-3l-1-321v-106l-1-16-1-3 9 1 11 3 1 133v59l-1 739-3 14-8 15-6 7-10 7-10 4-8 2-21 1h-417l-13-2-14-7-10-9-9-14-3-12-1-186-1-391-2-3-1-41v-17l3-6v-9l-3-7v-55l3-5 1-160 1-79 2-11 4-8 9-12 12-9 9-4z" fill="#1B1D1E"/>
<path transform="translate(1039,261)" d="m0 0h11l16 4 13 7 12 11 10 14 8 16 11 23 4 4 7-1 17-10 14-8 15-8 17-4h21l11 3 12 6 12 9 7 7 7 10 8 16 8 29-1 17-5 17-9 21-7 10-7 11-11 14-22 22-11 9-13 10-17 11-13 8-12 7-20 10-10 2-20 7-27 9-15 4-7-1-7-7-18-22-13-18-9-13-12-19-16-32-8-20v-3l3 1 3 4 7 3v2h2l2 4 5 5 2 6 4 2 1 2 3 1v-2h3l2-4h3l1-2 1 1 3-3 2 1 1-3h2l-3-5-8-8-6-5-11-11v-2l-4-2-5-6-6-5-3-3v-2l-4-2-5-6v-2l-4-2-2-2v-4h-2v-5l2-1 1 4 4 2 3 3 4 2 2 4 2 1v2l4 2 5 5 8 6 4 5 5 5 5 6 2 1 1 3 6 5 3 1v3l4 2 5 2 5-6 7-6 4-5 3-2h3l2-4 7-8h2l1-3 5-5 4-5 5-4 6-7 7-6-1-5h-4v-2h-5v-2h-6l-5-2-14-4-15-3-9-3-7-2-11-3-7-5v-2l-4-2v-2h-3l-2-4-5-5-4-7-2-10-1-1v-17l1-4h2l1-11 2-1 1-3 9-9h2l1-3 7-4 1-2 4-2h5v-2l7-1 3-3 9-3z" fill="#E6473B"/>
<path transform="translate(937,144)" d="m0 0h18l15 3 12 5 11 7 11 9 7 7 9 14 3 7-2 3h-2v-2l-15-1-12 6-8 5-6 3-3 1-3 4h-2l-1 5-9 18-5 13-2 1-3 7-8 11-4 2-2 5-4 1-1 2-6 3-9 3-9 2h-13l-13-2h-15l-5 2 2 4 7 5 7 8 6 7 5 6v2h2l7 8 15 15v2h2l1 4h-4l-6-6v-2l-3-1v-3l-4-2-2-4-4-1-1-4-5-2-12-11v-2h-2l-4-4v-2h-2l-5-5-11-10-6-1-7 2-5 2h-4v2l-13 5-8 3-4 1h-3v2l-14 3h-18l-11-1-2-1v-2l-7-1v-2h-5l-8-6-2-1v-3h-2v-2h-2l-3-5-3-3-2 1-3-1v-12h-2v-3l2-1-1-2 1-7 5-5-5-1 1 3-2 2-3-2 3-10 4-9 7-12 11-12 10-7 13-6 9-2 11-1h14l12 3 16 8 11 6 10 6 13 7 5 1 2-5 8-15 7-15 7-13 8-11 11-11 14-8 10-3z" fill="#E6473B"/>
<path transform="translate(1279,393)" d="m0 0 337 1 11 3 8 4 12 11 7 10 3 8 2 18 1 144 1 2v58l-2 3-1 324-4 5-1 5-2-1-1-2-4 2v2h-2l-1-509-1-16-3-8-6-7-7-3-6-1h-10l-4-1-3 1h-313l-26-1 10-25 4-14z" fill="#1B1C1E"/>
<path transform="translate(604,922)" d="m0 0h3l9 17 10 19 4 6 4-2 5-5 12-13 3-3 5 1 12 13 9 10h2l8-17 5-8 6-12 4-6 8 1 26 9 25 12 10 7 10 9 7 10 5 10 3 15v6l-7 7-13 10-16 10-14 8-20 8-21 6-23 5-19 2h-21l-24-3-36-9-20-8-21-11-10-7-11-8-11-9 1-7 4-15 6-12 10-12 16-11 21-11 30-11z" fill="#F2EEEC"/>
<path transform="translate(1273,375)" d="m0 0 3 1 4 13-1 17-5 17-9 21-7 10-7 11-11 14-22 22-11 9-13 10-17 11-13 8-12 7-20 10-6 1v-2h-3l-3-3-6-4-2-3v-3l-4-1v-2h-2l-4-6-2-4-4-2-8-8v-2l-3-1v-2l-5-2-4-8-4-2v-2l-4-2-3-2v-2l-4-2v-2l-4-1-6-9-7-6-1-5-3-1-2-3v-3l-2-2 2-1-3-1 2-6 8-7 2-2 4-2 1-4 2-2 6-7 4-2 2-4 3-3h2v-2h2v-2l5-4h4l5-5 3-1v-2h3v-2h9l6 5 8 4 1 3 6 1 7 5 11 4 5 1h11l18-6h2v-2l10-4 14-8 6-2 2-3 8-3h2l1-2 8-1v-2l16-1 7 1 7 2h7l6 2v2l2-2v-7l-1-5 1-4z" fill="#D5383A"/>
<path transform="translate(590,754)" d="m0 0 11 2 29 4 24 2h32l2-4h2v4l25 2 10 5 8 7 6 13 4 12 2 9 3-32 2-8 5 2 3 4v29l-4 13-4 6-2-1-5 15-8 20-9 14-11 12-12 9-16 8-5 2-1 16-7 4-7 7-5 4h-2v2l-3 2-4-1-10-8-7-6-5-4-1-4v-13l-13-2-14-8-10-8-9-10-8-13-9-21-3-8-7-6-3-11-3-12v-19l3-11 1-1h5l1 21 3 22 1 1 1 9h2l3-7 7-12 7-25 2-6 2-20z" fill="#FDCA9F"/>
<path transform="translate(1450,924)" d="m0 0 11 3 25 9 10 6 9 5 11 9 10 11 5 10 4 14 1 10-6 7-18 13-18 11-15 7-22 8-32 8-16 2h-33l-21-3-28-7-23-8-19-10-17-11-12-9-7-7 1-12 6-15 7-11 10-10 13-9 15-8 11-5 19-7h3l4 20 6 18 7 11 7 9 10 7 9 4 10 2h14l14-5 13-9 9-13 8-19 3-13 1-11z" fill="#F75F4A"/>
<path transform="translate(1344,761)" d="m0 0h14l19 2 22 1 53 1 5 3 11 10 2 5 1 6v35l-3 21-5 16-6 10-9 11-10 9-19 10-2 3v15l15 2 5 2-2 5-7 6-4 3-12 4-21 2-19-2-8-2-12-6-4-6 1-5 10-3h4v-2l2-1v-14l-14-7-9-6-7-8-10-14-5-9v-10l7-24 2-8h2l5-25 5-21z" fill="#FED9B5"/>
<path transform="translate(777,393)" d="m0 0 7 2 9 8 22 14 18 10 27 12 11 5v1l-22 1h-386l-15-2 14-14 8-7 12-12 7-8 9-9z" fill="#1C1D1F"/>
<path transform="translate(728,1245)" d="m0 0h10l15 6h7l7-3h8l9 6 12 11 23 23 8 10 3 5-1 8-6 9-9 10-12 13-15 15-8 7-13 13-1 2-5 1-15-1h-46l2-1v-2l-4-2-10-9 4 5 1 2-4-1-13-12-5-8 1-7 1-1 1-7v-8l-8-13-1-4 2-7h2l2-4 18-18 8-7 28-28z" fill="#50A3B7"/>
<path transform="translate(650,677)" d="m0 0 21 1 15 2 13 1h19l23-2v2l-6 4-10 10-1 3 19 1 11 3 2 4-12 2-5 2h-3l3 6 6 9 4 12 1 6v22l-4 49-2-4-4-15-5-13-4-7-9-7-7-3-25-2-1-2 1-3h-2l-1 4-1 1h-32l-33-3-26-4-5-1-2 20-5 17-4 14-9 15-2 5-3-1-1-9-2-6-2-17v-24l1-28 5-14 6-12 13-13 9-7 8-5 17-8 12-3z" fill="#020202"/>
<path transform="translate(431,394)" d="m0 0h64l-2 4-19 19-5 6-8 7-14 13h-3l-4-5-8-7-19-19-2-1 6 7 2 1v2h2v2l4 2 18 18v3l-20 1-8 3-7 8-2 4-1 28v499l-1 2 1 3v99h-1v-6l-8 6-3 3v49l-1 42-1 25h-1l-1-391-2-3-1-41v-17l3-6v-9l-3-7v-55l3-5 1-160 1-79 2-11 4-8 9-12 12-9 9-4z" fill="#1B1D1E"/>
<path transform="translate(1555,394)" d="m0 0h61l11 3 8 4 12 11 7 10 3 8 2 18 1 144 1 2v58l-2 3-1 324-4 5-1 5-2-1-1-2-4 2v2h-2l-1-509-1-16-3-8-6-7-7-3-6-1h-10l-4-1h-2l-7-8-11-11-8-7-18-18z" fill="#1B1B1C"/>
<path transform="translate(1392,678)" d="m0 0 18 1 16 4 13 5 12 8 15 14 12 18 8 20 2 9 1 181-9-3-19-7-12-4-4-1-3 4h-2l-1-5-20-4-1-1v-14l21-12 11-9 12-17 5-14 4-20 1-10v-38l-5-9-11-9-5-1-71-1 2-4 15-16 4-5 4-8 1-5-4-7-12-13-11-10-7-8-3-4 1-3z" fill="#FBBA5B"/>
<path transform="translate(1141,551)" d="m0 0h1v27l1 8-1 324v228l-5-2-7-6-1-1-1 242-2 4-1-553-2-6v-59l3-5v-6l-3-5v-48l1-14 1-3 1-46 1-73z" fill="#2F2F2E"/>
<path transform="translate(903,457)" d="m0 0 9 1 11 3 1 133v59l-1 269-14-14-2-1v232h-1v-233-3l-1-321v-106l-1-16z" fill="#1B1B1D"/>
<path transform="translate(604,922)" d="m0 0h3l9 17 10 19 4 6 4-2 5-5 12-13 3-3 5 1 12 13 9 10h2l8-17 5-8 6-12 4-6 8 1 26 9 25 12 10 7 10 9 7 10 5 10 3 15v6l-7 7-13 10-16 10-14 8-20 8-21 6-23 5-19 2h-21v-1l12-1 2-1h6v-2l15-3 21-3 11-1 5-3 12-4 6-1 4-3 10-5 17-10 13-9 9-6 2-6v-7l-2-9-5-9-7-7-6-7v-2l-4-2-13-10-3-1v-2l-4-1-8-3-5-2-12-2h-10v7l-5 10-12 15h-2v2l-6 3-1 2-5 1-10-2-15-6-16 5-7 1-10-2-4-2v-2l-3-1-14-21-5-2-1-2-10-1-11 3-13 6-7 5h-2v2l-8 7-8 8-5 4-4 8-1 13 8 12 3 3 8 4 11 9 11 7 7 4 17 6 13 4 14 4v2l23 2 1 3-1 1-14-1-27-6-18-5-19-8-19-10-10-7-11-8-11-9 1-7 4-15 6-12 10-12 16-11 21-11 30-11z" fill="#FBFBFB"/>
<path transform="translate(1035,475)" d="m0 0 1 2 4 2 5 5 7 6v2l4 2 5 5 6 7 8 7 24 24v2l4 2 14 14 1 4-13 5-30 10-15 4-7-1-5-5 1-3-3-8-4-1-1-5-6-12-4-6-5-3v-4l-2-1h2v-2h-2l-1-3-5-5-2-7-3-1-2-3-4-2-1-5-2-1-1-8h-2l-1-3h-2l2-4 10-8h5l1 3h-2v2l2 1v2l1-4 1-5 8 1 4 1 1-2 4 1z" fill="#D5383A"/>
<path transform="translate(1359,683)" d="m0 0h5l38 38 1 2v6l-6 10-4 5-4 3-12-1h-7l-9 4-8 7-5 3-2-1v-2h-3l-1 9-5 8-11 12v23l-6 9-9 7-9 1-3-4-1-9v-48l2-1 3 1h19l9-3 5-3 2-4h2l2-8v-12l-2-11-5-7-7-5-4-2 3-5 11-9 20-12z" fill="#FBBA59"/>
<path transform="translate(1240,503)" d="m0 0h306l1 2-1 13-1 1h-305l-2-3 1-12z" fill="#FCFCFC"/>
<path transform="translate(502,503)" d="m0 0h306l1 1v14l-1 1h-304l-2-2z" fill="#FCFCFC"/>
<path transform="translate(1555,394)" d="m0 0h61l11 3 8 4 12 11 7 10 3 8 2 18v131h-1l-1-88-3-1 3 4v2l-4-2-7-7h-2l-1-6-1-16-3-8-6-7-7-3-6-1h-10l-4-1h-2l-7-8-11-11-8-7-18-18z" fill="#1D2022"/>
<path transform="translate(1335,923)" d="m0 0h3l7 12 5 4 12 6 9 3 21 3 10-1 16-3 12-5 10-7 6-11h2v12l-2 14-9 21-10 13-14 9-12 4h-14l-13-3-11-6-9-8-10-15-6-16-3-12-1-13z" fill="#FED9B5"/>
<path transform="translate(1328,813)" d="m0 0h2l-2 11-7 24v10l9 15 8 10 1 3 3 1v2l5 2 11 7 8 4v14l-3 2-19 5-1 4 4 2 1 5 5 1 5 5 1 2-4 1-9-6-7-10-1-4-36 14-4 2v-111l7 1 8-2 9-6z" fill="#FAB959"/>
<path transform="translate(549,536)" d="m0 0h212v16l-1 1h-211z" fill="#FCFCFC"/>
<path transform="translate(1288,536)" d="m0 0h211v16l-1 1h-210l-1-1v-15z" fill="#FCFCFC"/>
<path transform="translate(728,1245)" d="m0 0h10l15 6h7l7-3h8l9 6 12 11 23 23 8 10 3 5-1 8-6 9-9 10-12 13-15 15-8 7-13 13-18 1-3-1v-10l4-8 17-17 7-8 11-10 3-2 26-1 5-5 5-7 1-5-6-9-33-33-11-9-5-1-11 4-8-1-15-6-5 1-10 9-27 27-6 7-5 3-9 11-1 7 7 15-1 9h-2l-2 6-1 2v6l9 10 8 7 2 3-4-1-13-12-5-8 1-7 1-1 1-7v-8l-8-13-1-4 2-7h2l2-4 18-18 8-7 28-28z" fill="#86BECD"/>
<path transform="translate(1390,1142)" d="m0 0h18l10 5 8 9 3 7v15l-1 7v16l-1 1-7-1-2-2-6 1-9 3h-9l-11-4-8-7-5-8-2-6v-12l4-10 9-10z" fill="#52A4B8"/>
<path transform="translate(648,1142)" d="m0 0h17l10 5 5 4 6 10 1 4v11l-2 10v15l-1 1-7-1-3-2-5 1-9 3h-7l-10-3-6-4-8-9-4-11v-9l4-9 6-9 5-4z" fill="#53A4B8"/>
<path transform="translate(1140,912)" d="m0 0h2v226l-8-6-6-6v-203l10-10z" fill="#1C1F20"/>
<path transform="translate(1643,489)" d="m0 0h1v501h2v-2l4-3 2 1 2-4 3-3 1-324 2-1-1 731h-1l-1-295-11-10-2-1v280h-1v-281h2l-2-4v-80l2-3h-2z" fill="#2F4D55"/>
<path transform="translate(512,1142)" d="m0 0 9 1 8 5 5-1 7-4h9l8 3 6 9v10l-5 12-8 10-7 7-11 7-6-1-11-7-12-12-7-12-1-10 2-7 5-6z" fill="#54A5B8"/>
<path transform="translate(1257,1142)" d="m0 0 8 2 6 4 4 2 2-4 6-3h10l8 4 5 7 1 9-5 13-7 9-10 10-9 6-6-1-10-6-10-9-9-13-2-5v-12l6-8 4-3z" fill="#53A5B8"/>
<path transform="translate(403,488)" d="m0 0 2 2v499l-1 2 1 3v99h-1v-6l-8 6-3 3v49l-1 42-1 25h-1v-384h1l1 80 1 56 1 15 7 7 2 1v-495l-2-1z" fill="#39636F"/>
<path transform="translate(1633,1374)" d="m0 0 2 1-6 4-10 2h-341l1 2v9l-35 35-5-1-10-9-6-8-3-7-1-16 4-6-24 1h-30l-11-1v-1h66l2 3v-2l5-1h192l201-1z" fill="#34535D"/>
<path transform="translate(730,1289)" d="m0 0h16l10 5 8 9 4 9v9l-6 12-7 7-7 4-4 1h-14l-9-4-7-6-5-10-1-3v-10l6-12 9-8z" fill="#87BFCE"/>
<path transform="translate(681,918)" d="m0 0 12 2 11 1 1 2-8 14-5 10-8 15-2 4-4-2-12-13-8-9-5 1-9 9-5 6-5 5-4 2-7-10-8-16-7-13v-4l8-2 16-1 10 8 7 6 5 4 6-1v-2l10-8 8-7z" fill="#040505"/>
<path transform="translate(431,394)" d="m0 0h64l-2 4-19 19-5 6-8 7-14 13h-3l-4-5-8-7-19-19-7-3 5-5 11-7z" fill="#1B1C1D"/>
<path transform="translate(1403,719)" d="m0 0 3 3 1 5-4 9-4 6-10 10-7 8-2 3h71l6 2 11 9 5 9v38l-3 22-4 15-6 12-11 14-13 10-17 9v14l20 4 1 1v5h2l2-4 4-1 2 4-2 16h-1l1-18h-2l-2 5-4 7-11 8-11 4-22 4-10-1-19-3-10-4v-4l-1-3-5-2-3-1-3-6-3-3 2-3 14-4h5l-4 2-10 3 1 6 3 4 13 6 13 2 13 1 21-2 12-5 9-7 2-5-19-4-1-4v-11l5-5 18-10 10-9 10-13 4-8 5-18 2-17v-35l-2-8-3-5-10-9-3-1-53-1-33-2-22-2-2 9h-2l3-13h3v2l5-1 8-8 8-4 3-1h10l9 1 5-4 8-13v-8z" fill="#FECBA0"/>
<path transform="translate(746,1143)" d="m0 0h63v5l-16 32-10 21-4 1-4-10-7-21-22-22-1-5z" fill="#FCFCFC"/>
<path transform="translate(1490,1143)" d="m0 0h61v6l-27 54-4-4-9-25-6-9-13-13-5-4 2-4z" fill="#FCFCFC"/>
<path transform="translate(555,772)" d="m0 0h5l1 21 3 22 1 1 1 9 2 2 2-1 4 11 5 13 5 10 9 11 9 7 6 5 5 6 18 10 2 1 1 8 6 11 7 4 5 6h7l7-6 1-2h2l1-3 2-1 4-8 3-1 1-3h1v14l-7 4-7 7-5 4h-2v2l-3 2-4-1-10-8-7-6-5-4-1-4v-13l-13-2-14-8-10-8-9-10-8-13-9-21-3-8-7-6-3-11-3-12v-19l3-11z" fill="#FDD8B7"/>
<path transform="translate(903,457)" d="m0 0 9 1 11 3-1 101-5 6-4 4-6 2v-99l-1-15-3-1z" fill="#1B1B1C"/>
<path transform="translate(423,446)" d="m0 0h24l8 7 10 9 9 9v2h2l7 8 16 16 3 4 307 1 1 1v16l-1 1h-303v-1l302-1v-14l-306-1-1 2-9-11-21-21v-2l-4-2-16-16-6-4-4 2-1 3-18 18-7 8-9 8h-1v-26l6-9 6-5z" fill="#87BFCE"/>
<path transform="translate(704,1379)" d="m0 0h41l16 1 4-1h125v1l-12 1h-112l-6 4-17 17-11 7-9-1-8-6-5-5v-2l-4-2v-2l-3-1-4-5-4-4 4-1z" fill="#34535D"/>
<path transform="translate(392,983)" d="m0 0 4 1 5 4 3 3 1 3v87l-4 6-6 5h-3z" fill="#1C1E20"/>
<path transform="translate(782,195)" d="m0 0h14l5 1v1h-12l-1 3-9 9h-2l-2 4-7 8-4 2-1 3-7 6-1 2h-2l-1 4-4 3-1 3-10 5-3 2h-7l-5-2 1-4 9-4 4-5 6-5v-11l2-7v-6l15-8 12-3z" fill="#F8624C"/>
<path transform="translate(714,289)" d="m0 0 7 6v3l2 1 3 3 2 9 3 7-1 2 2 1 1 1v5l1 3h2l8 8 2 7 4 2v2h2l3 4 2 4 4 1 7 6 2 7 1 2 2-1 2 8 7 1 3 5-1 2 3 1 2-1 1 3 3 1 2 5 2 1v2l6 2-1 3-4-1-11-8-7-6-1 3-4-6-9-9-2-1v-2l-3-1-7-8-8-8-10-13-10-15-8-16-5-15z" fill="#E6483C"/>
<path transform="translate(512,1142)" d="m0 0 9 1 8 5 5-1 7-4h9l8 3 6 9v10l-5 12-8 10-7 7-11 7-6-1-11-7-12-12-7-12-1-10 2-7 5-6zm1 5-6 3-4 6v10l3 7 6 8 8 8 7 5h7l9-7 8-8 7-11 1-3v-7l-3-5-5-4-2-1h-7l-7 6-3 9-3-1-3-9-5-4-4-2z" fill="#FCFCFC"/>
<path transform="translate(1251,1380)" d="m0 0h21l5 6v5l-5 4-12 2-2 4-8 8-2 10-5 6-7-4-8-8-5-8-2-11v-8l5-3h2v-2h11l-3 7v7l4 6 6 1 6-3 4-5v-7l-6-6z" fill="#1B1B1C"/>
<path transform="translate(1257,1142)" d="m0 0 8 2 6 4 4 2 2-4 6-3h10l8 4 5 7 1 9-5 13-7 9-10 10-9 6-6-1-10-6-10-9-9-13-2-5v-12l6-8 4-3zm-3 5-7 6-2 4v8l4 10 9 10 12 9h6l8-6 7-6 7-10 3-6v-9l-4-6-5-3h-8l-6 5-3 8v3l-3-1-3-9-7-6-2-1z" fill="#FCFCFC"/>
<path transform="translate(1390,1142)" d="m0 0h18l10 5 8 9 3 7v15l-1 7v16l-1 1-7-1-2-2-6 1-9 3h-9l-11-4-8-7-5-8-2-6v-12l4-10 9-10zm5 4-10 4-7 6-4 9v14l4 8 8 7 6 3h13l8-3h7l1-1 2-11 2-7-1-11-5-8-7-6-6-3-4-1z" fill="#FCFCFC"/>
<path transform="translate(1376,406)" d="m0 0h50l31 1 4 2-2 4-3 1-100 1-32-1-1-4 1-3z" fill="#010101"/>
<path transform="translate(648,1142)" d="m0 0h17l10 5 5 4 6 10 1 4v11l-2 10v15l-1 1-7-1-3-2-5 1-9 3h-7l-10-3-6-4-8-9-4-11v-9l4-9 6-9 5-4zm5 4-9 3-9 8-4 10v9l3 8 4 6 9 6 4 1h10l10-3h7l1-1 2-13 1-2v-13l-6-10-8-6-9-3z" fill="#FCFCFC"/>
<path transform="translate(1352,1256)" d="m0 0h7l8 8 2 3v8l6 1 9 5 1 1v5l-4 1-13-6-4-1-4 2-2 4-3 4-6 1-6-3-6-8-5-4 1-5 12-12z" fill="#87BFCE"/>
<path transform="translate(1358,918)" d="m0 0h5l-4 2-10 3 1 6 3 4 13 6 13 2 13 1 21-2 12-5 9-7 2-5v-2l4 1v5h2l2-4 4-1 2 4-2 16h-1l1-18h-2l-2 5-4 7-11 8-11 4-22 4-10-1-19-3-10-4v-4l-1-3-5-2-3-1-3-6-3-3 2-3z" fill="#FDCA9E"/>
<path transform="translate(624,406)" d="m0 0 69 1 21 1 9 1 2 1-1 3-2 1h-125l-8-1-1-5 1-1z" fill="#010101"/>
<path transform="translate(496,989)" d="m0 0h2l-2 4-30 32-10 10h-2l-1 4 14 13 8 7 16 17 49 49 5 4 7 8 6 7-1 2-7-2 2-1-3-5-90-90-8-6-4 2-17 16-24 24-1-4 1-2 5-3 32-32h2l2-4-1-4-27-27-7-8-5-4-2-5 4 2 27 27 5 6 8 7 4-1 8-7 15-14 7-8z" fill="#87BFCE"/>
<path transform="translate(688,758)" d="m0 0h2v4l25 2 10 5 8 7 4 8v6l-2-2-2-6-5-1-2-1v-2l-5-1v-2h-3l-2-5-6-1-7-2h-6l14 12 8 8 1 4-1 2-5-1-8-7v-2l-4-2-7-8-8-4-8-1-26-1-3-1h-10l-15-2-3-3h18l14 1h32z" fill="#FDCEAD"/>
<path transform="translate(555,772)" d="m0 0h5l1 21 3 22 1 1 1 9 3 8 8 21 7 14 9 12 9 8 18 10 2 2-7-1-12-7-10-8-9-10-8-13-9-21-3-8-7-6-3-11-3-12v-19l3-11z" fill="#6BB0C2"/>
<path transform="translate(1554,986)" d="m0 0 8 6 2 4 4 2 30 30 5 2 10-9 27-27 1-2h3l-2 5-3 1-7 8-27 27 1 4 8 7 20 20 5 6 5 4 1 4-8-6-2-4h-2l-7-8-17-17-6-5-4 2-10 9-91 91-2-1 7-7 7-8 22-22h2l1-3 7-6 1-2h2l2-4 12-11 6-7h2l2-4 24-24 6-5-1-4-30-30-8-7-6-6z" fill="#86BECD"/>
<path transform="translate(423,446)" d="m0 0h20l-3 5-4 4h-2l-2 4-21 21-5 6h-1v-24l6-9 6-5z" fill="#50A3B7"/>
<path transform="translate(1297,766)" d="m0 0h1l1 52 3 7 9-1 9-7 5-8v-23l7-7 7-8 2-1-1 7-6 28-2 9-2 2v-3h-2l-2 4-6 7-9 5-8 1-5-2v106h-1z" fill="#FECEA5"/>
<path transform="translate(705,1380)" d="m0 0h39l2 5-1 5-10 10-4 2h-6l-8-7-13-13z" fill="#1B1B1C"/>
<path transform="translate(711,734)" d="m0 0h10l6 4 4 6v7l-6 16-3 1-7-3 2-9 2-6v-6l-5 1-9 10-1 2h-6l-3-4 2-5 11-12z" fill="#1D1E20"/>
<path transform="translate(1324,1286)" d="m0 0h6l5 5 3 4 3 5 4 5 7 8-1 5-17 17-3-1 2-5 5-5 5-6 1-8h-2v-2l-9-1-10 9-3-1 1-4 7-7v-8l-1-2h-6l-12 11-4 4-2-1 1-5 10-11 7-5z" fill="#87BFCE"/>
<path transform="translate(804,645)" d="m0 0 3 1-1 4-11 11-3 5 8 7 5-2 6-6h2l2-5 4 1-1 5-6 5-5 6 1 4 10 11-1 6-7-2-23-23-3-5 1-4 7-8 7-7z" fill="#88BFCE"/>
<path transform="translate(1382,1224)" d="m0 0h4l-1 5-11 11-2 3v3l7 5 5-1 10-10h4l-1 4-7 8-4 4 2 4 7 9 1 6-3 2-11-10-8-7-3-3v-2h-2l-5-8 1-5 8-8 5-6z" fill="#88BFCE"/>
<path transform="translate(1294,1314)" d="m0 0h6l8 7 1 7-7 16 1 6 3 3 6-2 5-6 7-6 3 1-1 4-7 8-7 7h-2v2l-4 2-7-7-4-7 1-8 7-12-1-5-3-3-4-1-5 3-10 11-3-1 1-4 9-10z" fill="#87BFCE"/>
<path transform="translate(773,677)" d="m0 0 6 2 8 5 2 6-1 7 9 1 3 3 6 2-1 4-5 1-11-6h-5l-5 4h-3l3 6 8 9v5l-3 1-7-8-5-5-1-8 4-2 7-9 1-5-6-5-5-1-6 5-5 7h-5l2-5 7-8 5-5z" fill="#87BFCE"/>
<path transform="translate(905,460)" d="m0 0 2 3 1 12v98l5-2-5 8-1 324h-1l-1-321z" fill="#34535D"/>
<path transform="translate(1643,489)" d="m0 0h1v501h2v-2l4-3 2 1-1 4-4 1-2 1-2-1z" fill="#34535D"/>
<path transform="translate(1140,908)" d="m0 0 2 4-6 4-7 7v203l9 9h-3l-6-6-1 242h-1v-449l8-9z" fill="#34535D"/>
<path transform="translate(1422,856)" d="m0 0h5l-1 6-4 6-8 6-5 2-8 2h-18l-10-3-5-4-1-6 7 1 5 3 8 2h9l8-3 8-5 6-4h2v-2z" fill="#FECBA0"/>
<path transform="translate(749,743)" d="m0 0h1v22l-4 49-2-4-4-15-5-13-3-7 5-4 5-10 3-4h3z" fill="#060606"/>
<path transform="translate(743,208)" d="m0 0h2v7l-2 7v10l-6 5-5 5-13 6-3 1 1-5 4-9 7-12 11-12z" fill="#E5493D"/>
<path transform="translate(590,754)" d="m0 0 11 2 17 3 2 2-15 1h-7l-5 6-1 15-4 12-4 8-4 11h-2v2l-6 4 1-6 6-11 6-22 2-6 2-20z" fill="#FBC9A8"/>
<path transform="translate(1141,551)" d="m0 0h1v27l1 8-1 322h-1l-1-329-6-8-4-4 1-2 7 6 2 1v-20z" fill="#34535D"/>
<path transform="translate(744,818)" d="m0 0h2l1 9-7 18-5 13-9 14-11 12-12 9-16 8-4 1 2-4 17-11 9-7 7-6 13-17 7-17 4-10z" fill="#FEDDBC"/>
<path transform="translate(1381,677)" d="m0 0h25l15 3 12 5-3 1-11-4-9-2-18-1-22 2 2 5 7 7 4 5 8 7 8 8 4 5v3l-4-2-35-35h-5l-13 8-9 6-15 12v-3l11-9h2v-2l13-8 12-7h6v-2z" fill="#FED3AB"/>
<path transform="translate(795,1155)" d="m0 0h3l-1 6-8 16-7 13-2 1-7-21 3-3 14-9z" fill="#5AA8BB"/>
<path transform="translate(1334,924)" d="m0 0 2 3 3 17 7 20 10 13 5 5 7 6 10 4 5 1h14l15-3 10-7 6-5 9-13 8-19 1 4-9 21-10 13-14 9-12 4h-14l-13-3-11-6-9-8-10-15-6-16-3-12z" fill="#FDC791"/>
<path transform="translate(1497,1148)" d="m0 0h37l3 1v2l-13 7-9 7-5-1-7-8-6-7z" fill="#59A8BB"/>
<path transform="translate(556,772)" d="m0 0h4l1 21 3 22 1 1v8l-2 2-5-5-5-15v-26z" fill="#FED9B7"/>
<path transform="translate(615,1292)" d="m0 0h9l6 5 1 9-5 5-5 2-7-1-4-4-1-2v-7l3-5z" fill="#34535D"/>
<path transform="translate(755,1148)" d="m0 0h39l-2 4-13 8-6 4-5-1-13-13z" fill="#5AA8BB"/>
<path transform="translate(1539,1155)" d="m0 0h2l-1 4-16 32h-2l-5-16v-6l11-8 8-5z" fill="#5AA8BB"/>
<path transform="translate(651,1292)" d="m0 0h9l5 6 2 4-1 5-3 5-9 1-6-3-3-3v-8l4-6z" fill="#34535D"/>
<path transform="translate(690,1291)" d="m0 0 6 1 6 5 1 8-3 5-9 3-7-3-3-5 1-7 5-5z" fill="#34535D"/>
<path transform="translate(1424,1292)" d="m0 0h9l5 4 1 9-5 6-2 1h-8l-5-4-1-2v-8l4-5z" fill="#34535D"/>
<path transform="translate(1261,445)" d="m0 0 2 1-7 12-12 16-9 10-17 17-11 9-13 10-17 11-13 8-12 7-9 3 4-4 12-6 11-7 14-9 14-10 16-13 12-11 14-14 13-18z" fill="#F8604B"/>
<path transform="translate(1388,1292)" d="m0 0h8l6 5 1 8-3 5-3 2h-9l-5-5v-10z" fill="#34535D"/>
<path transform="translate(613,800)" d="m0 0h10l4 6-2 4-1-3-3-1 3 5h4l-1 6-6 4-10-1-3-5v-8l3-5z" fill="#0C0808"/>
<path transform="translate(663,804)" d="m0 0h7l5 5v10l-3 4h-8l-6-4-2-4 1-7 3-3z" fill="#FFDAB6"/>
<path transform="translate(688,801)" d="m0 0h7l3 9v2h3v-7l3 1v9l-5 5-7 1-6-3-3-3v-9z" fill="#060404"/>
<path transform="translate(442,393)" d="m0 0h72v1l-16 1-14 14-7 8-13 13-8 7-7 6 9 1v1h-15l-7-8-13-13-2-1v-2h-2v-2l-4-2-4-4v-2l4 2 23 23 6 5v2l5-3 16-15 7-6 7-8 15-15 1-2h-53z" fill="#385F6A"/>
<path transform="translate(750,770)" d="m0 0 5 2 3 4v29l-4 13-4 6-2-1v-7l5-13 2-10-2-5-2-2-2 2z" fill="#FEDFC1"/>
<path transform="translate(908,905)" d="m0 0 7 6 8 7-1 4-7-8-8-7v232h-1v-233z" fill="#34535D"/>
<path transform="translate(1351,1263)" d="m0 0 7 1 4 7-1 4-8 8-5-1-7-9 2-4z" fill="#50A3B7"/>
<path transform="translate(1266,1340)" d="m0 0 6 1 7 8 8 8 3 2v2h2l7 7-1 4-5-2-11-10-11-9-6-5-3-3z" fill="#87BFCE"/>
<path transform="translate(1426,803)" d="m0 0h9l2 7h3l-1 6-6 3h-7v-2l-5-1-2-3 1-6z" fill="#261F20"/>
<path transform="translate(1355,802)" d="m0 0 5 2-2 8 3-1 2-4 2 1-1 7-3 3-3 1h-7l-7-4-1-7 5-4z" fill="#222528"/>
<path transform="translate(443,446)" d="m0 0 6 1 7 7 8 7 10 10v2h2l4 5v2l-4-2-5-5v-2l-4-2-16-16-6-4-4 2-1 3-18 18-7 8-9 8-1-2 3-4h2l2-4 26-26z" fill="#87BFCE"/>
<path transform="translate(749,773)" d="m0 0h1v11l5 5 1 5-4 15-5 12-2-3-1-8h1l3-32z" fill="#F7AE8B"/>
<path transform="translate(391,439)" d="m0 0h1l1 58 4-3 2 1-6 6-1 31-1 92h-1v-106z" fill="#468999"/>
<path transform="translate(766,724)" d="m0 0 5 3 2 9-4 8-8 8-5 2h-3v-3h3l2-4 6-7 1-2v-6l-3-3 2-4z" fill="#87BFCE"/>
<path transform="translate(681,807)" d="m0 0h1l1 7 4 4 3 1 1 4-4-1-8 9-4 4-4 1-2-3 9-12 2-4-1-1v-7z" fill="#FED5B2"/>
<path transform="translate(874,440)" d="m0 0h4v3l8 1 4 3 7 2 6 2 11 3v3l-13-1-27-10-1-4z" fill="#ED5141"/>
<path transform="translate(735,711)" d="m0 0 4 5v4l-10 10-3 1-5-4 2-5z" fill="#1B1B1C"/>
<path transform="translate(403,1083)" d="m0 0 2 3v7h-1v-6l-8 6-3 3v49l-1 42h-1v-94l6-4 5-4z" fill="#34535D"/>
<path transform="translate(556,557)" d="m0 0 5 2 13 13 4 3v2l4 2 12 13 13 13 3 5-4-2-45-45-5-4z" fill="#87BFCE"/>
<path transform="translate(621,806)" d="m0 0 8 2 3 9-1 2-5 3-3 2-10 1-3-3-5-4v-6l2-5h1l2 11 5 2h6l5-3 1-5-4-1-2-2z" fill="#FBBE9D"/>
<path transform="translate(1143,1141)" d="m0 0 8 6 37 37 8 7-3 1-10-9-40-40z" fill="#87BFCE"/>
<path transform="translate(1555,394)" d="m0 0 4 2 41 41 5 4v2l5-1v2h9v1l-9 1-4-1h-2l-7-8-11-11-8-7-18-18z" fill="#365863"/>
<path transform="translate(1498,552)" d="m0 0 1 3-10 11-7 8-19 19-6 5-2-1 8-8 5-6h2l2-4 5-4 5-6 8-7 6-8h-14v-1z" fill="#87BFCE"/>
<path transform="translate(1347,1295)" d="m0 0h4v3l3 1 5 6 6 3-4 4-6 1-4-4-4-10z" fill="#34535D"/>
<path transform="translate(1242,322)" d="m0 0 4 2 8 7 9 11 8 15v3l-5-1-2-9-9-12-8-9v-2l-4-2z" fill="#DD4B45"/>
<path transform="translate(701,805)" d="m0 0 3 1v9l-5 5-7 1-6-3 1-3 9-2 1-3 1 2h3z" fill="#1E1C1D"/>
<path transform="translate(1606,444)" d="m0 0 4 1 3 4v2l4 2 7 8 7 7 7 9h-3l-13-13-7-8-7-7-6 2z" fill="#84BDCD"/>
<path transform="translate(899,1150)" d="m0 0v3l-16 17-18 18-3 1 2-4 9-9 5-6 4-4h2l2-4 4-4h2l2-4z" fill="#87BFCE"/>
<path transform="translate(756,794)" d="m0 0h1v16l-4 10-4 4-1-1v-7l5-13z" fill="#FFDAB6"/>
<path transform="translate(1069,268)" d="m0 0 5 1 11 8 7 7 10 15v2l-4-1-3-5-6-8-6-7v-2h-2l-4-4-8-5z" fill="#DC4440"/>
<path transform="translate(869,867)" d="m0 0 4 2 33 33-1 2-10-9-26-26z" fill="#87BFCE"/>
<path transform="translate(1600,452)" d="m0 0 1 2-12 12-7 8-13 12-3 3-2-1 7-7 7-8 20-20z" fill="#87BFCE"/>
<path transform="translate(1377,696)" d="m0 0 4 2 5 2 13 13 4 5v3l-4-2-22-22z" fill="#FECDA3"/>
<path transform="translate(922,481)" d="m0 0h1v85l-4 1h-3l5-5z" fill="#34535D"/>
<path transform="translate(676,1335)" d="m0 0 1 4-4 8v6l9 10 8 7 2 3-4-1-13-12-5-8 1-7z" fill="#FDFDFD"/>
<path transform="translate(572,1159)" d="m0 0 5 3v2l4 2 24 24v2l-4-2-1-3-4-2-24-24z" fill="#87BFCE"/>
<path transform="translate(455,455)" d="m0 0 4 1 15 15v2h2l4 5v2l-4-2-5-5v-2l-4-2-12-12z" fill="#A5CEDA"/>
<path transform="translate(1175,875)" d="m0 0 2 1-29 29-3 1 1-3 26-26z" fill="#87BFCE"/>
<path transform="translate(756,773)" d="m0 0h2l2 5v19l-2 17-6 9-2 1 2-4 4-10 1-5v-29z" fill="#86BECD"/>
<path transform="translate(1358,682)" d="m0 0h6v1l-6 2-20 12-12 10-5 3 2-4 10-8h2v-2l13-8z" fill="#FED0A7"/>
<path transform="translate(723,697)" d="m0 0 25 3 7 3 1 3-10 1v-6l-22-1z" fill="#243034"/>
<path transform="translate(891,447)" d="m0 0 7 3 16 4v3l-10-1-14-6z" fill="#E6473B"/>
<path transform="translate(1479,1155)" d="m0 0v3l-11 11-7 8-7 7-4 3-2-1z" fill="#87BFCE"/>
<path transform="translate(741,840)" d="m0 0h1v7l-4 12-8 10-3 2 2-5 6-10z" fill="#61ACBE"/>
<path transform="translate(1360,681)" d="m0 0h7l12 12 4 5-1 2-3-3-5-3-10-10v-2z" fill="#FED3AC"/>
<path transform="translate(732,221)" d="m0 0 1 2h2l-1 4h-2l-1 5-5 3-2-2 1-5 5-5z" fill="#D83C3C"/>
<path transform="translate(1247,778)" d="m0 0 3 1 6 8 16 15 10 10-1 2-15-15-8-7-8-8z" fill="#F2EEEC"/>
<path transform="translate(1338,924)" d="m0 0h2l6 9 2 2 3-1 5 3 3 5-4 1-9-6-7-10z" fill="#FCAF7F"/>
<path transform="translate(744,707)" d="m0 0h5l-5 4-2 3 2 8 3 1-1 5-3-4-7-11v-3z" fill="#67AEBF"/>
<path transform="translate(411,411)" d="m0 0 4 2 23 23 5 4v2l-4-2-16-16-2-1v-2h-2v-2l-4-2-4-4z" fill="#407684"/>
<path transform="translate(712,269)" d="m0 0 2 3 2 10-1 5-2 7h-1l-1-7v-17z" fill="#EB5041"/>
<path transform="translate(1e3 167)" d="m0 0 4 2 9 10 8 14-1 2-3-2-2-6-3-3-1-4h-2l-5-7v-2l-4-2z" fill="#DB413E"/>
<path transform="translate(685,1365)" d="m0 0 4 2 10 9 2 1v2l-9-1v-2h-2v-2l-4-2-3-4 8 4z" fill="#87BFCE"/>
<path transform="translate(621,1051)" d="m0 0h10l10 1 1 3-1 1-14-1-6-1z" fill="#FCFCFC"/>
<path transform="translate(726,871)" d="m0 0 1 2-7 8-10 9-13 8-5 1 5-4 12-7 13-12z" fill="#64ADBF"/>
<path transform="translate(701,805)" d="m0 0 3 1v9l-5 5-4-1 2-6h4z" fill="#060708"/>
<path transform="translate(944,450)" d="m0 0 2 1-9 10-5 1-8-1 3-3h7l4-3h2v-2z" fill="#EB5343"/>
<path transform="translate(826,419)" d="m0 0 5 1 4 2 1 2 8 2 3 4-6-1-14-7z" fill="#E6473B"/>
<path transform="translate(744,759)" d="m0 0 2 1-2 7-4 5h-2l-2 4-4-1 5-4 5-10z" fill="#34535D"/>
<path transform="translate(749,743)" d="m0 0h1v22l-2 3-3-2v-6-3h3z" fill="#20282B"/>
<path transform="translate(1445,946)" d="m0 0 1 4-9 21-4 4v-4l6-10z" fill="#FDC790"/>
<path transform="translate(600,885)" d="m0 0 4 1 9 7 11 5 4 2-4 1-19-10-5-4z" fill="#F7F5F4"/>
<path transform="translate(740,762)" d="m0 0 1 2-4 8-4 3-5-2 5-5z" fill="#221C1D"/>
<path transform="translate(744,818)" d="m0 0h2l1 9-4 9h-2v-5l2-7z" fill="#FED8B5"/>
<path transform="translate(689,800)" d="m0 0h8l4 2 1 3-1 7h-3l-2-4-1-6-6-1z" fill="#3B2E30"/>
<path transform="translate(1657,981)" d="m0 0h1l-1 37h-1l-1-32-2-1z" fill="#010101"/>
<path transform="translate(559,748)" d="m0 0h2v21l-1 3h-4v-2h2z" fill="#4B8796"/>
<path transform="translate(559,772)" d="m0 0h1l1 21 1 15-1-2h-2z" fill="#FDC999"/>
<path transform="translate(1627,1058)" d="m0 0 7 6 5 6 5 4 1 4-8-6-2-4h-2l-7-8z" fill="#84BDCD"/>
<path transform="translate(1048,571)" d="m0 0 5 1v2l4 1-1 2 9-4 6 1-3 2-8 2-7-1z" fill="#ED5F4C"/>
<path transform="translate(397,494)" d="m0 0 2 1-6 6-1 31h-1v-35l4-1z" fill="#34535D"/>
<path transform="translate(1555,394)" d="m0 0 4 2 15 15v2l-4-2-10-10z" fill="#3B6774"/>
<path transform="translate(1266,427)" d="m0 0 2 2-1 7-4 3-2-1v-5h2v-2h2z" fill="#E5463A"/>
<path transform="translate(741,836)" d="m0 0h2l-3 9-5 13-1-4 3-6v-6z" fill="#FBEADA"/>
<path transform="translate(1373,678)" d="m0 0h19v1l-22 2 1 5-5-5v-2z" fill="#FECDA2"/>
<path transform="translate(1319,820)" d="m0 0 2 1-4 5-4 2h-5v-2h3l1-3z" fill="#FED4AD"/>
<path transform="translate(756,806)" d="m0 0 1 4-4 10-4 4-1-3 2-6h3z" fill="#F6F3F2"/>
<path transform="translate(1434,803)" d="m0 0 2 1 1 6 3 1-7 1-3-4v-2h4z" fill="#34545F"/>
<path transform="translate(737,786)" d="m0 0 2 3 3 8v8l-3-4-2-7z" fill="#FAB99A"/>
<path transform="translate(1306,408)" d="m0 0 6 1 1 4-1 1-7-1v-4z" fill="#010101"/>
<path transform="translate(735,711)" d="m0 0 4 5-1 2-7 1-2 1 1-4z" fill="#33515B"/>
<path transform="translate(1112,559)" d="m0 0 4 1-14 5-6 1 3-4 7-1z" fill="#EC5444"/>
<path transform="translate(1140,908)" d="m0 0 2 4-6 4-8 8v-3l7-8z" fill="#365B66"/>
<path transform="translate(745,728)" d="m0 0 2 4-2 4-3 3-2-3v-5l3-1 1 1z" fill="#34535D"/>
<path transform="translate(717,250)" d="m0 0 6 2-1 2-5 5-2 1-2-1 1-5h4z" fill="#DB403D"/>
<path transform="translate(1614,1046)" d="m0 0 4 2 9 9v2l-4-2-9-9z" fill="#9DCAD6"/>
<path transform="translate(737,856)" d="m0 0 1 3-8 10-3 2 2-5 5-8z" fill="#60ABBD"/>
<path transform="translate(1273,693)" d="m0 0v3l-13 13-2-2z" fill="#F2EEEC"/>
<path transform="translate(1367,943)" d="m0 0 10 1 2 1v2h-9l-6-2z" fill="#F8604B"/>
<path transform="translate(908,906)" d="m0 0 4 2 11 10-1 4-7-8-7-7z" fill="#355762"/>
<path transform="translate(747,819)" d="m0 0 3 6-6 14-2 1 3-10z" fill="#5FABBD"/>
<path transform="translate(1335,696)" d="m0 0 1 3-14 11v-3l11-9h2z" fill="#FED1A9"/>
<path transform="translate(738,679)" d="m0 0h3v2l-5 2-18-1v-1z" fill="#253236"/>
<path transform="translate(1134,337)" d="m0 0 2 1-4 5-7 1-1-3 9-3z" fill="#E15249"/>
<path transform="translate(403,1083)" d="m0 0 2 3v7h-1v-6l-8 6-4 2 1-3 9-7z" fill="#34555F"/>
<path transform="translate(621,806)" d="m0 0 8 2v7l-2-3-4-1-2-2z" fill="#A85E50"/>
<path transform="translate(1644,482)" d="m0 0 5 5 8 7v2l-4-2-7-7h-2z" fill="#355762"/>
<path transform="translate(608,893)" d="m0 0 4 1 10 5v1l-7-1-7-4z" fill="#64ADBF"/>
<path transform="translate(1140,334)" d="m0 0 3 1-4 5-6 1 3-5z" fill="#DA4441"/>
<path transform="translate(659,1054)" d="m0 0h5l2 3h-21v-1l12-1z" fill="#FDFDFD"/>
<path transform="translate(728,866)" d="m0 0v3l-8 10-3 2 2-5z" fill="#F5F2F1"/>
<path transform="translate(1363,811)" d="m0 0 1 4-3 3h-9v-1h6l1-4z" fill="#0B0D0E"/>
<path transform="translate(725,694)" d="m0 0 9 3 8 1v1h-10l-8-1z" fill="#4E9DB1"/>
<path transform="translate(445,446)" d="m0 0 5 2 6 7h-3l-7-6z" fill="#9AC9D5"/>
<path transform="translate(719,239)" d="m0 0 3 3v4l-6 3 1-5z" fill="#F66751"/>
<path transform="translate(556,772)" d="m0 0 3 1-4 11-2 1 1-9z" fill="#F7F6F5"/>
<path transform="translate(685,901)" d="m0 0 2 1-3 3-2 13h-1v-15z" fill="#70B3C4"/>
<path transform="translate(748,700)" d="m0 0h6l4 4v4l-9-1v-1h7l-4-4z" fill="#55A5B9"/>
<path transform="translate(756,810)" d="m0 0h2l-1 6-6 8v-3l4-8z" fill="#69B0C1"/>
<path transform="translate(697,804)" d="m0 0 4 2v6h-3l-1-2z" fill="#E4C1B3"/>
<path transform="translate(687,799)" d="m0 0 1 3h-2l-2 4-1 8h-1l-1-9h2l2-4z" fill="#FCB393"/>
<path transform="translate(1395,712)" d="m0 0 8 6v3l-4-2-4-4z" fill="#FED3AD"/>
<path transform="translate(431,430)" d="m0 0 7 6 5 4v2l-4-2-8-8z" fill="#3D6D7B"/>
<path transform="translate(779,1165)" d="m0 0 2 1-3 5-4 2-1-4z" fill="#87BFCE"/>
<path transform="translate(1385,1150)" d="m0 0 2 1-11 11 1-4 4-5z" fill="#73B5C6"/>
<path transform="translate(726,871)" d="m0 0 1 2-7 8-3 3-2-1 7-7z" fill="#69AFC1"/>
</svg>
